<svg width="124" height="154" viewBox="0 0 124 154" fill="none" xmlns="http://www.w3.org/2000/svg">
<path fill-rule="evenodd" clip-rule="evenodd" d="M72.1584 31.8806C74.8389 28.5549 76.6531 24.4792 76.35 19.9122C75.4765 6.75364 58.1469 9.64837 54.776 16.2897C51.405 22.931 51.8056 39.7773 56.1622 40.9643C57.8997 41.4377 61.6009 40.2781 65.3679 37.8781L63.0034 55.5593H76.9647L72.1584 31.8806Z" fill="#CFAF92"/>
<path fill-rule="evenodd" clip-rule="evenodd" d="M48.5912 7.08296C48.8803 6.00882 49.6579 5.08912 50.7059 4.81628C50.96 4.75009 51.2225 4.72336 51.484 4.73451C51.5778 4.73847 51.6041 4.76705 51.6479 4.69772C51.6804 4.64632 51.6812 4.52074 51.6946 4.46033C51.7362 4.27248 51.7883 4.08697 51.8526 3.90627C52.0718 3.28996 52.4403 2.7445 52.8846 2.28502C53.7155 1.42541 54.8381 0.832149 56.0046 0.724819C56.6429 0.666107 57.2767 0.775738 57.8802 0.995244C58.1927 1.10887 58.4957 1.25036 58.7908 1.4068C58.8796 1.45388 59.1679 1.68449 59.257 1.66955C59.3555 1.65307 59.5534 1.3944 59.6335 1.32947C60.6232 0.526836 61.8454 0.211267 63.0782 0.220917C64.4697 0.23178 65.8096 0.305272 66.9701 1.20187C67.2158 1.39169 67.4497 1.59953 67.6725 1.81835C67.7898 1.93355 67.9034 2.05308 68.0118 2.17757C68.0772 2.25268 68.1409 2.32948 68.2021 2.40834C68.3061 2.5422 68.2894 2.58617 68.435 2.49277C68.9935 2.13412 69.6407 1.96638 70.2926 2.05106C70.6797 2.10137 71.0563 2.22421 71.4139 2.38589C71.5357 2.44093 71.8175 2.66047 71.9473 2.66261C72.076 2.66471 72.3539 2.4612 72.4865 2.40947C73.2027 2.13 73.9747 2.06111 74.7275 2.19025C75.5041 2.3235 76.2669 2.65098 76.9249 3.10352C77.2413 3.32121 77.5174 3.5624 77.7392 3.88608C77.835 4.02584 77.9215 4.17367 78.03 4.30325C78.0936 4.37912 78.2194 4.45698 78.2535 4.553C78.2331 4.4955 79.1028 4.14112 79.1848 4.11847C79.622 3.99778 80.0672 4.02225 80.4954 4.17117C81.3004 4.4512 81.9927 5.07919 82.5618 5.72305C82.854 6.05376 83.1098 6.41932 83.3269 6.80878C83.4309 6.99534 83.526 7.18723 83.6131 7.38319C83.6553 7.47812 83.6832 7.59688 83.7388 7.68241C83.8104 7.7926 83.8586 7.7947 83.9883 7.84275C84.6472 8.08673 85.2478 8.4997 85.7051 9.05771C86.1678 9.62226 86.468 10.3175 86.5938 11.0496C86.6012 11.0927 86.6056 11.2715 86.6295 11.2948C86.6623 11.3269 86.7948 11.3127 86.8449 11.3189C87.0185 11.3405 87.1908 11.3725 87.3608 11.415C87.6743 11.4935 87.9794 11.6089 88.268 11.7598C89.3931 12.3482 90.1976 13.4512 90.5914 14.6924C91.0046 15.995 90.9972 17.4873 90.5034 18.7656C90.4237 18.9721 90.3288 19.1725 90.2173 19.3621C90.1488 19.4784 90.1267 19.4787 90.1712 19.6008C90.2207 19.7367 90.3112 19.8687 90.3701 20.0014C90.562 20.4346 90.6962 20.894 90.7809 21.3632C90.92 22.1329 90.9889 22.9417 90.8517 23.7172C90.788 24.0774 90.677 24.4294 90.5077 24.7501C90.4214 24.9137 90.3204 25.0688 90.2063 25.2122C90.1471 25.2867 90.0842 25.3579 90.0185 25.426C89.9809 25.465 89.9315 25.4991 89.8996 25.5425C89.8215 25.6486 89.8051 25.5614 89.8453 25.7171C89.9016 25.9348 90.0292 26.1496 90.1074 26.3614C90.1879 26.5797 90.2607 26.801 90.3273 27.0244C90.4621 27.4769 90.5761 27.9376 90.6474 28.4062C90.7843 29.306 90.7603 30.2646 90.3577 31.0903C90.1855 31.4435 89.9386 31.7534 89.639 31.9944C89.4924 32.1123 89.3336 32.214 89.167 32.2974C89.0814 32.3404 88.9721 32.3588 88.9331 32.4463C88.8911 32.5404 88.9535 32.7272 88.9677 32.8324C89.0915 33.7475 89.1536 34.7083 88.8962 35.6051C88.6592 36.431 88.1373 37.1603 87.4597 37.6431C86.1452 38.5797 84.3734 38.5269 82.9922 37.7771C82.6322 37.5816 82.2954 37.3389 81.9949 37.0527C81.2298 38.1413 79.6554 38.1069 78.5372 37.7967C77.1441 37.4102 76.0263 36.3863 75.3822 35.041C74.5015 36.1742 72.6533 35.8066 72.0426 34.5772C71.8931 34.2764 71.8044 33.9448 71.7608 33.6092C71.7378 33.4327 71.7525 33.2547 71.7352 33.0797C71.7132 32.8566 71.5722 32.6399 71.4912 32.4241C71.3334 32.0041 71.2354 31.5703 71.2312 31.1174C71.229 30.8808 71.2574 30.6504 71.2786 30.4158C71.2978 30.2046 71.2424 30.0078 71.2109 29.7994C71.5682 29.8615 72.0035 29.7597 72.3401 29.6502C72.6704 29.5427 72.9798 29.2597 73.213 29.0012C73.7543 28.401 74.0851 27.6142 74.3112 26.8311C74.8077 25.1124 74.6042 23.0503 72.9687 22.1071C72.2068 21.6676 69.9242 21.6691 69.0167 21.8863C68.0626 22.1146 66.9809 24.34 66.9277 24.5492C66.8947 24.6786 66.9113 24.8388 66.7988 24.9251C66.5515 25.1148 66.1437 24.7856 65.9613 24.6232C65.6466 24.3428 65.4221 23.9698 65.2277 23.5917C64.804 22.7679 64.4625 21.8845 64.2213 20.9827C64.0353 20.2875 63.9163 19.5705 63.6733 18.893C63.4313 18.2188 63.05 17.6162 62.4571 17.2343C61.8121 16.8188 61.0728 16.6 60.3647 16.3389C59.6629 16.0801 58.9731 15.7639 58.4291 15.2148C58.3095 15.0941 58.1933 14.9658 58.097 14.8237C58.021 14.7115 57.9459 14.4966 57.8301 14.4255C57.65 14.3148 57.3872 14.6026 57.2315 14.7071C56.4634 15.2228 55.8226 15.942 55.3057 16.7276C54.7917 17.5089 54.37 18.2608 54.0273 19.1333C53.7731 19.7804 53.6144 20.6091 53.1673 21.1394C52.9677 21.3762 51.484 21.5194 51.0034 21.3127C50.5228 21.106 49.9842 20.5692 49.8229 20.2328C49.6578 19.8885 49.6183 19.5102 49.6889 19.1333C49.7304 18.9115 49.8151 18.7044 49.8615 18.4865C49.9005 18.3036 49.936 18.1306 50.0202 17.963C50.1799 17.6454 50.4527 17.4171 50.7817 17.3216C50.4393 16.988 50.1556 16.5888 49.9593 16.1426C49.7554 15.6791 49.5825 15.1153 49.5334 14.6065C49.4935 14.1933 49.5551 13.7651 49.7691 13.41C49.9937 13.0374 50.3914 12.7944 50.7355 12.562C50.2099 12.1273 49.76 11.5986 49.3901 11.0132C48.6708 9.87492 48.2259 8.44005 48.5912 7.08296Z" fill="#191847"/>
<path fill-rule="evenodd" clip-rule="evenodd" d="M32.2674 98.6639L13.7116 113.066C8.67883 114.502 4.47414 116.288 1.0975 118.424C0.299881 119.192 -0.664124 120.748 2.6438 120.479C5.95173 120.21 9.44262 120.085 9.89905 121.277C10.3555 122.47 8.3537 123.896 9.27634 125.505C9.89143 126.578 12.7974 123.888 17.9942 117.436L36.3694 109.382L32.2674 98.6639ZM103.513 99.161L91.3562 99.2115C98.8623 124.823 102.914 138.413 103.513 139.98C104.859 143.506 102.01 148.876 100.792 151.762C104.76 153.638 104.337 146.689 109.342 149.15C113.91 151.396 117.385 155.467 122.662 152.024C123.311 151.601 124.022 150.008 122.304 148.763C118.024 145.661 111.856 140.231 111.023 138.444C109.886 136.007 107.383 122.913 103.513 99.161Z" fill="#CFAF92"/>
<path fill-rule="evenodd" clip-rule="evenodd" d="M68.966 45.2438L63.9358 44.3319C45.2723 61.3734 37.6065 94.1121 14.7296 111.455L20.2359 118.669C59.9231 113.475 69.7599 73.542 68.966 45.2438Z" fill="#E87613"/>
<path fill-rule="evenodd" clip-rule="evenodd" d="M90.894 112.061C70.7248 112.061 55.8887 112.061 46.3858 112.061C44.352 112.061 44.7352 108.957 45.0292 107.39C48.4223 89.3129 61.6677 69.8262 61.6677 44.0932L74.5059 41.9653C85.1248 60.017 88.797 82.2424 90.894 112.061Z" fill="#DDE3E9"/>
<path fill-rule="evenodd" clip-rule="evenodd" d="M90.5362 59.7094C92.4008 59.1428 93.8774 57.8215 94.9659 55.7454C99.6584 46.7959 97.9637 41.8685 92.949 40.2488C87.9343 38.6291 83.4622 41.9654 75.4725 41.9654C75.0379 41.9654 74.6399 41.9942 74.2784 42.0518L70.2594 42.2942C58.7283 83.6017 55.548 111.161 60.7187 124.973H95.7502C97.8258 130.089 99.8119 134.393 101.709 137.886H111.254C112.152 107.183 105.247 81.1245 90.5362 59.7094Z" fill="#FF9B21"/>
<path fill-rule="evenodd" clip-rule="evenodd" d="M88.122 103.759C87.0203 113.502 85.2296 120.574 82.75 124.973H95.7504C93.3293 119.006 90.7865 111.935 88.122 103.759H88.122Z" fill="black" fill-opacity="0.1"/>
</svg>
