<svg width="130" height="141" viewBox="0 0 130 141" fill="none" xmlns="http://www.w3.org/2000/svg">
<path fill-rule="evenodd" clip-rule="evenodd" d="M72.6643 28.8329C74.5802 25.3328 75.4498 21.3836 74.0759 17.4985C70.1176 6.30462 53.3756 12.8188 51.5418 19.35C49.7081 25.8811 54.0543 40.3781 58.7115 40.3987C60.5688 40.4069 64.0178 38.5468 67.2425 35.5972L69.0048 51.4566L83.0386 48.2282L72.6643 28.8329Z" fill="#CFAF92"/>
<path fill-rule="evenodd" clip-rule="evenodd" d="M50.9125 22.2342C50.8498 21.4569 50.9653 20.5512 51.0485 19.783C51.1557 18.7928 51.4684 17.8503 51.8475 16.9426C52.5613 15.2338 53.5342 13.6151 54.7058 12.188C56.846 9.58123 59.9452 7.64898 63.3993 7.25116C65.1433 7.05028 66.9459 7.26096 68.6097 7.91887C70.113 8.51332 71.6811 9.53659 73.3429 9.25401C75.1511 8.94646 76.396 7.13912 77.5848 5.92635C78.9253 4.55907 80.4417 3.43873 82.2472 2.72371C85.2719 1.52603 88.4961 1.81582 91.3064 3.6733C94.297 5.64995 96.9727 8.94175 96.3533 12.614C96.2382 13.2966 96.0159 13.9009 95.6116 14.4523C95.2408 14.958 94.6248 15.5469 94.6021 16.2238C94.5782 16.9434 95.4276 17.6694 95.8301 18.2212C96.4067 19.0117 96.9339 19.8595 97.0897 20.8271C97.3456 22.4161 96.6763 24.1429 95.8224 25.4223C94.9534 26.7241 93.6994 27.6444 92.2623 28.266C91.3027 28.6811 90.2987 29.0192 89.2545 29.1862C88.7361 29.2692 88.2519 29.2436 87.7309 29.2545C87.2242 29.265 86.9875 29.4428 86.6454 29.776C85.056 31.3244 83.1396 32.2227 80.9116 32.5589C79.0313 32.8425 76.7975 32.9238 74.9833 32.119C72.9685 31.2251 72.5251 29.4557 72.4087 27.4831C72.0434 27.7667 70.9236 28.1477 71.4089 27.2405C71.6012 26.8812 72.0835 26.6421 72.386 26.3872C72.7382 26.0904 73.0806 25.7328 73.3072 25.3287C74.2219 23.6971 72.1957 21.2701 70.4697 21.1902C67.9052 21.0715 68.2025 24.2664 66.7156 25.4524C65.8607 26.1342 64.6681 25.745 63.7624 25.2758C62.5493 24.6472 61.5738 23.6693 60.6844 22.6505C59.9518 21.8114 59.2487 20.9515 58.5083 20.1193C58.1625 19.7306 57.0412 18.6651 57.3003 18.0762C55.5087 18.1585 53.7817 19.2423 52.5404 20.4283C52.0274 20.9185 51.6685 21.4115 51.5117 22.1049C51.4781 22.2535 51.4335 22.6824 51.248 22.7422C50.9027 22.8536 50.9283 22.4296 50.9125 22.2342Z" fill="#191847"/>
<path fill-rule="evenodd" clip-rule="evenodd" d="M34.4254 90.7586L15.4715 103.977C10.289 105.348 5.96905 107.018 2.51178 108.99C1.69957 109.691 0.728594 111.102 4.14643 110.806C7.56427 110.51 11.1738 110.339 11.6663 111.4C12.1587 112.462 10.1118 113.773 11.0937 115.2C11.7482 116.151 14.7092 113.692 19.9764 107.822L38.8509 100.297L34.4254 90.7586ZM108.144 90.0165L95.5681 90.2644C103.768 113.095 108.191 125.208 108.836 126.603C110.289 129.741 107.433 134.601 106.221 137.208C110.358 138.824 109.803 132.602 115.022 134.725C119.786 136.662 123.451 140.252 128.853 137.079C129.517 136.689 130.225 135.249 128.427 134.162C123.946 131.453 117.473 126.689 116.58 125.101C115.363 122.936 112.551 111.241 108.144 90.0165Z" fill="#CFAF92"/>
<path fill-rule="evenodd" clip-rule="evenodd" d="M71.4872 42.2572L66.2673 41.5236C47.2463 57.1105 39.87 86.5848 16.4949 102.512L22.3142 108.887C63.2877 103.57 72.7883 67.6101 71.4872 42.2572Z" fill="#308AE7"/>
<path fill-rule="evenodd" clip-rule="evenodd" d="M95.3063 101.787C74.4381 102.123 59.0878 102.37 49.2556 102.529C47.1513 102.563 47.4952 99.7738 47.7728 98.3648C50.977 82.1038 64.3511 64.4153 63.9149 41.3486L77.162 39.2271C88.4549 55.2314 92.6311 75.0927 95.3063 101.787Z" fill="#DDE3E9"/>
<path fill-rule="evenodd" clip-rule="evenodd" d="M94.0481 54.8664C95.9678 54.3275 97.4732 53.1185 98.5642 51.2393C103.268 43.1388 101.431 38.7501 96.2147 37.3819C90.9987 36.0136 86.4281 39.0787 78.1613 39.2119C77.7117 39.2192 77.3003 39.2516 76.9273 39.3093L72.773 39.5936C61.5424 76.8136 58.7191 101.571 64.3032 113.866L100.549 113.282C102.783 117.833 104.911 121.658 106.933 124.757L116.81 124.598C117.219 97.0613 109.631 73.8175 94.0481 54.8664Z" fill="#3699FF"/>
<path fill-rule="evenodd" clip-rule="evenodd" d="M92.2977 94.3932C91.3229 103.146 89.5901 109.514 87.0991 113.499L100.55 113.283C97.9439 107.974 95.1931 101.678 92.2977 94.3932Z" fill="black" fill-opacity="0.1"/>
</svg>
